<svg version="1.1" xmlns="http://www.w3.org/2000/svg" style="display: block;" viewBox="0 0 2048 2048" width="512" height="512">
<path transform="translate(0,0)" fill="rgb(0,0,0)" d="M 1609.59 567.947 A 121.185 121.185 0 0 1 1477.25 459.298 A 121.185 121.185 0 0 1 1585.66 326.761 A 121.185 121.185 0 0 1 1718.43 435.367 A 121.185 121.185 0 0 1 1609.59 567.947 z M 1584.07 365.175 A 83.3913 83.3913 0 0 0 1515.28 460.716 A 83.3913 83.3913 0 0 0 1610.59 529.836 A 83.3913 83.3913 0 0 0 1679.94 434.204 A 83.3913 83.3913 0 0 0 1584.07 365.175 z"/>
<path transform="translate(0,0)" fill="rgb(0,0,0)" d="M 672.608 596.165 A 87.8788 87.8788 0 0 1 572.8 522.912 A 87.8788 87.8788 0 0 1 645.29 422.548 A 87.8788 87.8788 0 0 1 746.421 495.593 A 87.8788 87.8788 0 0 1 672.608 596.165 z M 653.778 459.696 A 50.2522 50.2522 0 0 0 609.166 515.231 A 50.2522 50.2522 0 0 0 664.911 559.58 A 50.2522 50.2522 0 0 0 709.052 504.097 A 50.2522 50.2522 0 0 0 653.778 459.696 z"/>
<path transform="translate(0,0)" fill="rgb(0,0,0)" d="M 875.942 827.499 C 808.227 698.973 892.498 540.345 1035.43 535.14 C 1080.2 527.99 1131.2 547.433 1166.64 574.143 C 1310.79 682.785 1250.48 906.516 1071.09 930.79 C 1075.56 942.758 1080.48 954.483 1083.84 966.834 C 1155.45 924.984 1244.07 894.928 1327.11 916.562 C 1323.4 905.175 1318.54 894.194 1315.22 882.666 C 1276.65 748.663 1423.93 632.077 1547.37 701.362 C 1675.84 773.471 1649.93 959.883 1499.34 999.754 C 1732.94 1197.36 1579.96 1581.63 1281.06 1583.05 C 1074.12 1592.23 904.077 1393.84 939.169 1191.72 C 873.076 1186.74 846.661 1203.71 779.593 1153.93 C 722.089 1228.33 616.582 1258.98 526.591 1238.68 C 388.21 1207.46 303.573 1070.39 335.97 932.837 C 386.963 716.332 680.736 669.2 794.681 856.13 C 821.924 841.537 845.326 832.588 875.942 827.499 z M 1035.43 574.095 C 912.732 579.827 846.564 729.752 920.313 827.499 C 999.8 838.913 997.317 858.772 1049.75 893.76 C 1054.78 893.829 1059.92 894.129 1064.94 893.76 C 1214 872.792 1259.85 688.878 1144.53 604.622 C 1115.77 583.604 1071.4 566.575 1035.43 574.095 z M 1459.04 719.37 C 1350.98 733.698 1307.03 866.703 1386.83 928.856 C 1403.6 941.917 1452.34 964.619 1477.05 966.834 C 1519.09 956.471 1549.83 943.089 1573.09 904.53 C 1626.5 815.965 1549.65 705.817 1459.04 719.37 z M 566.705 777.058 C 446.433 789.757 354.474 894.191 368.164 1016.69 C 389.882 1211.02 650.115 1271.94 750.016 1126.98 C 747.44 1122.34 744.971 1117.59 742.146 1113.1 C 708.395 1059.39 705.358 1014.36 717.769 953.446 C 670.481 841.314 580.222 868.12 570.253 842.958 C 550.745 793.719 648.858 829.14 665.626 838.518 C 710.305 863.507 712.296 881.335 742.146 910.983 C 748.47 899.031 757.359 889.089 766.11 878.889 C 713.359 808.195 654.672 775.353 566.705 777.058 z M 896.617 865.092 C 867.981 865.401 840.75 872.764 816.35 888.032 C 843.845 966.106 855.154 1051.14 800.96 1122.77 C 842.129 1150.34 881.888 1160.79 931.297 1151.71 C 937.189 1150.12 942.824 1148.49 948.468 1146.14 C 973.008 1076.59 998.216 1043.16 1049.75 991.755 C 1037.31 921.269 971.031 854.541 896.617 865.092 z M 783.597 916.562 C 743.179 966.705 738.554 1034.07 772.107 1088.93 L 774.237 1091.55 C 782.088 1089.29 787.927 1067.37 790.235 1060.53 C 799.879 1031.94 807.095 936.913 783.597 916.562 z M 1258.58 948.757 A 299.217 299.217 0 0 0 974.439 1263.09 A 299.217 299.217 0 0 0 1289.53 1546.39 A 299.217 299.217 0 0 0 1572.07 1232.14 A 299.217 299.217 0 0 0 1258.58 948.757 z"/>
<path transform="translate(0,0)" fill="rgb(0,0,0)" d="M 1445.68 1410.73 C 1409.81 1406.66 1432.21 1378.42 1440.55 1364.47 C 1515.53 1239.01 1452.92 1094.42 1313.23 1059.07 C 1299.18 1055.52 1280.01 1058.33 1267.67 1050.48 C 1253.07 1041.19 1260.41 1021.24 1281.06 1018.22 C 1311.74 1014.25 1356.35 1028.87 1383.45 1043.49 C 1503.27 1108.1 1544.5 1254.68 1479.3 1373.14 C 1471.61 1387.11 1462 1405.93 1445.68 1410.73 z"/>
<path transform="translate(0,0)" fill="rgb(0,0,0)" d="M 654.492 1481.35 A 88.3654 88.3654 0 0 1 555.222 1405.94 A 88.3654 88.3654 0 0 1 630.144 1306.31 A 88.3654 88.3654 0 0 1 730.267 1381.6 A 88.3654 88.3654 0 0 1 654.492 1481.35 z M 637.837 1343.62 A 50.4374 50.4374 0 0 0 592.588 1398.64 A 50.4374 50.4374 0 0 0 647.496 1444.03 A 50.4374 50.4374 0 0 0 692.999 1388.98 A 50.4374 50.4374 0 0 0 637.837 1343.62 z"/>
<path transform="translate(0,0)" fill="rgb(0,0,0)" d="M 846.457 1715.85 A 128.485 128.485 0 0 1 702.384 1604.98 A 128.485 128.485 0 0 1 813.401 1461.02 A 128.485 128.485 0 0 1 957.22 1571.92 A 128.485 128.485 0 0 1 846.457 1715.85 z M 817.46 1498.52 A 90.9491 90.9491 0 0 0 739.8 1601.12 A 90.9491 90.9491 0 0 0 842.467 1678.69 A 90.9491 90.9491 0 0 0 919.971 1576.11 A 90.9491 90.9491 0 0 0 817.46 1498.52 z"/>
</svg>